<svg width="134" height="16" viewBox="0 0 134 16" fill="none" xmlns="http://www.w3.org/2000/svg">
<path fill-rule="evenodd" clip-rule="evenodd" d="M49.0007 0C46.828 0 46.5553 0.0095 45.702 0.0483333C44.8503 0.0873333 44.269 0.222167 43.7603 0.42C43.2342 0.624333 42.7878 0.897667 42.3432 1.3425C41.8982 1.78717 41.6248 2.2335 41.4198 2.7595C41.2215 3.26833 41.0865 3.84983 41.0482 4.70117C41.01 5.5545 41 5.82733 41 8C41 10.1727 41.0097 10.4445 41.0483 11.2978C41.0875 12.1495 41.2223 12.7308 41.42 13.2395C41.6245 13.7657 41.8978 14.212 42.3427 14.6567C42.7872 15.1017 43.2335 15.3757 43.7593 15.58C44.2683 15.7778 44.8498 15.9127 45.7013 15.9517C46.5547 15.9905 46.8272 16 48.9997 16C51.1725 16 51.4443 15.9905 52.2977 15.9517C53.1493 15.9127 53.7313 15.7778 54.2403 15.58C54.7663 15.3757 55.212 15.1017 55.6565 14.6567C56.1015 14.212 56.3748 13.7657 56.5798 13.2397C56.7765 12.7308 56.9115 12.1493 56.9515 11.298C56.9898 10.4447 56.9998 10.1727 56.9998 8C56.9998 5.82733 56.9898 5.55467 56.9515 4.70133C56.9115 3.84967 56.7765 3.26833 56.5798 2.75967C56.3748 2.2335 56.1015 1.78717 55.6565 1.3425C55.2115 0.8975 54.7665 0.624167 54.2398 0.42C53.7298 0.222167 53.1482 0.0873333 52.2965 0.0483333C51.4432 0.0095 51.1715 0 48.9982 0H49.0007ZM48.2832 1.44167C48.4962 1.44133 48.7338 1.44167 49.0008 1.44167C51.1368 1.44167 51.39 1.44933 52.2335 1.48767C53.0135 1.52333 53.4368 1.65367 53.7188 1.76317C54.0922 1.90817 54.3583 2.0815 54.6382 2.3615C54.9182 2.6415 55.0915 2.90817 55.2368 3.2815C55.3463 3.56317 55.4768 3.9865 55.5123 4.7665C55.5507 5.60983 55.559 5.86317 55.559 7.99817C55.559 10.1332 55.5507 10.3865 55.5123 11.2298C55.4767 12.0098 55.3463 12.4332 55.2368 12.7148C55.0918 13.0882 54.9182 13.354 54.6382 13.6338C54.3582 13.9138 54.0923 14.0872 53.7188 14.2322C53.4372 14.3422 53.0135 14.4722 52.2335 14.5078C51.3902 14.5462 51.1368 14.5545 49.0008 14.5545C46.8647 14.5545 46.6115 14.5462 45.7682 14.5078C44.9882 14.4718 44.5648 14.3415 44.2827 14.232C43.9093 14.087 43.6427 13.9137 43.3627 13.6337C43.0827 13.3537 42.9093 13.0877 42.764 12.7142C42.6545 12.4325 42.524 12.0092 42.4885 11.2292C42.4502 10.3858 42.4425 10.1325 42.4425 7.99617C42.4425 5.85983 42.4502 5.60783 42.4885 4.7645C42.5242 3.9845 42.6545 3.56117 42.764 3.27917C42.909 2.90583 43.0827 2.63917 43.3627 2.35917C43.6427 2.07917 43.9093 1.90583 44.2827 1.7605C44.5647 1.6505 44.9882 1.5205 45.7682 1.48467C46.5062 1.45133 46.7922 1.44133 48.2832 1.43967V1.44167ZM53.2712 2.77C52.7412 2.77 52.3112 3.1995 52.3112 3.72967C52.3112 4.25967 52.7412 4.68967 53.2712 4.68967C53.8012 4.68967 54.2312 4.25967 54.2312 3.72967C54.2312 3.19967 53.8012 2.76967 53.2712 2.76967V2.77ZM49.0008 3.89165C46.7319 3.89165 44.8924 5.73115 44.8924 7.99999C44.8924 10.2688 46.7319 12.1075 49.0008 12.1075C51.2696 12.1075 53.1084 10.2688 53.1084 7.99999C53.1084 5.73115 51.2694 3.89165 49.0006 3.89165H49.0008ZM49.0007 5.33332C50.4734 5.33332 51.6674 6.52715 51.6674 7.99999C51.6674 9.47265 50.4734 10.6667 49.0007 10.6667C47.5279 10.6667 46.334 9.47265 46.334 7.99999C46.334 6.52715 47.5279 5.33332 49.0007 5.33332Z" fill="white"/>
<path fill-rule="evenodd" clip-rule="evenodd" d="M123.934 4.25625L123.976 4.9483L123.277 4.86356C120.731 4.53872 118.506 3.4371 116.618 1.58693L115.695 0.668915L115.457 1.34684C114.953 2.85804 115.275 4.45398 116.324 5.52735C116.884 6.12054 116.758 6.20528 115.793 5.85219C115.457 5.7392 115.163 5.65446 115.135 5.69683C115.037 5.7957 115.373 7.08092 115.639 7.58937C116.002 8.29553 116.744 8.98758 117.555 9.39716L118.241 9.72199L117.429 9.73612C116.646 9.73612 116.618 9.75024 116.702 10.0468C116.982 10.9649 118.087 11.9394 119.318 12.3631L120.185 12.6597L119.43 13.1116C118.311 13.7613 116.996 14.1285 115.681 14.1567C115.051 14.1709 114.533 14.2273 114.533 14.2697C114.533 14.411 116.24 15.2019 117.233 15.5126C120.213 16.4306 123.753 16.0351 126.411 14.4674C128.299 13.3517 130.188 11.1343 131.069 8.98758C131.545 7.84359 132.02 5.75333 132.02 4.75057C132.02 4.10089 132.062 4.01615 132.846 3.23937C133.307 2.78742 133.741 2.2931 133.825 2.15187C133.965 1.88352 133.951 1.88352 133.238 2.12362C132.048 2.54732 131.881 2.49083 132.468 1.85528C132.902 1.40333 133.419 0.584174 133.419 0.344077C133.419 0.301707 133.21 0.372324 132.972 0.499434C132.72 0.640668 132.16 0.852518 131.741 0.979629L130.985 1.21973L130.3 0.753655C129.922 0.499434 129.39 0.216967 129.111 0.132227C128.397 -0.0655006 127.306 -0.0372539 126.662 0.18872C124.914 0.824272 123.809 2.46258 123.934 4.25625Z" fill="white"/>
<path fill-rule="evenodd" clip-rule="evenodd" d="M21.7957 2.49845C21.5397 1.51497 20.7853 0.740516 19.8275 0.477677C18.0916 0 11.1304 0 11.1304 0C11.1304 0 4.16923 0 2.43327 0.477677C1.47542 0.740516 0.721075 1.51497 0.465075 2.49845C0 4.2809 0 8 0 8C0 8 0 11.719 0.465075 13.5015C0.721075 14.485 1.47542 15.2595 2.43327 15.5225C4.16923 16 11.1304 16 11.1304 16C11.1304 16 18.0916 16 19.8275 15.5225C20.7853 15.2595 21.5397 14.485 21.7957 13.5015C22.2609 11.719 22.2609 8 22.2609 8C22.2609 8 22.2609 4.2809 21.7957 2.49845Z" fill="white"/>
<path fill-rule="evenodd" clip-rule="evenodd" d="M9.0437 11.8262V4.86963L14.6089 8.34802L9.0437 11.8262Z" fill="#533E2D"/>
<path fill-rule="evenodd" clip-rule="evenodd" d="M86.9643 16V7.99906H89.1729L89.4656 5.2419H86.9643L86.968 3.86191C86.968 3.1428 87.0364 2.75748 88.0692 2.75748H89.4499V0H87.241C84.5878 0 83.6539 1.33752 83.6539 3.58682V5.24221H82V7.99938H83.6539V16H86.9643Z" fill="white"/>
</svg>
