<svg width="135" height="32" viewBox="0 0 135 32" fill="none" xmlns="http://www.w3.org/2000/svg">
<path fill-rule="evenodd" clip-rule="evenodd" d="M0.463072 1.19737C0.116124 1.54645 0 2.2432 0 2.82453V28.2978C0 28.8798 0.231536 29.4611 0.463072 29.9264L0.579196 30.0425L14.933 15.7364V15.3873L0.463784 1.19666L0.463072 1.19737Z" fill="url(#paint0_linear_1_38)"/>
<path fill-rule="evenodd" clip-rule="evenodd" d="M19.6789 20.3886L14.9327 15.6196V15.2705L19.6789 10.5023L19.7943 10.6192L25.4666 13.8756C27.0873 14.806 27.0873 16.3185 25.4666 17.2489L19.6789 20.3893V20.3886Z" fill="url(#paint1_linear_1_38)"/>
<path fill-rule="evenodd" clip-rule="evenodd" d="M19.7945 20.3885L14.8176 15.5034L0.463745 29.9249C1.15835 30.507 2.19991 30.507 2.89452 30.0417L19.7945 20.3885Z" fill="url(#paint2_linear_1_38)"/>
<path fill-rule="evenodd" clip-rule="evenodd" d="M19.7943 10.6185L2.77961 1.08064C2.08429 0.615435 1.04131 0.615435 0.347412 1.19748L14.8166 15.5043L19.7943 10.6192V10.6185Z" fill="url(#paint3_linear_1_38)"/>
<path fill-rule="evenodd" clip-rule="evenodd" d="M43.4089 4.22092C43.4089 5.03522 43.0612 5.96564 42.5982 6.54697C42.2638 6.88084 41.8667 7.14525 41.4297 7.32499C40.9927 7.50472 40.5245 7.59623 40.052 7.59422C39.1258 7.59422 38.0836 7.24514 37.5051 6.54697C36.6951 5.8488 36.3474 4.91909 36.3474 3.98796C36.3474 2.94142 36.6951 2.011 37.3897 1.42967C38.0836 0.731496 39.0097 0.266287 39.9359 0.382411C40.3989 0.382411 40.862 0.498536 41.3251 0.731496C41.672 0.964457 42.1351 1.08058 42.4828 1.54579L41.9036 1.89488C41.3814 1.37355 40.6737 1.08069 39.9359 1.08058C39.1258 1.08058 38.4312 1.42967 37.852 2.011C37.3325 2.5378 37.0415 3.24808 37.042 3.98796C37.042 4.68613 37.3897 5.50043 37.852 5.96564C38.3744 6.48714 39.0823 6.78001 39.8205 6.77993C40.6305 6.77993 41.2097 6.43084 41.7882 5.96564C42.1351 5.50043 42.3666 4.91838 42.4828 4.45317H39.9359V3.63959H43.2928C43.4089 3.87184 43.4089 4.1048 43.4089 4.22092ZM48.7328 1.31354H45.6081V3.63959H48.3866V4.45317H45.6081V6.66381H48.7328V7.47739H44.6813V0.498536H48.7328V1.31354ZM52.4374 7.47739H51.5112V1.31354H49.5435V0.498536H54.2897V1.31354H52.322V7.4781L52.4374 7.47739ZM57.8781 7.47739V0.498536H58.8043V7.36126C58.6881 7.47739 57.8781 7.47739 57.8781 7.47739ZM61.8135 7.47739V1.31354H59.8465V0.498536H64.5927V1.31354H62.625C62.7404 1.31354 62.7404 7.4781 62.7404 7.4781H61.8142L61.8135 7.47739ZM73.7366 6.54697C72.3473 7.94331 70.1481 7.94331 68.5274 6.54697C67.8553 5.86535 67.4808 4.94517 67.4858 3.98796C67.4858 3.05754 67.8328 2.011 68.5274 1.42967C70.0327 -0.0827979 72.2319 -0.0827979 73.7366 1.31283C74.4086 1.99444 74.7832 2.91463 74.7781 3.87184C74.7781 4.91909 74.4312 5.84951 73.7366 6.54697ZM69.222 5.96564C70.2635 7.01289 72.0004 7.01289 72.9265 5.96564C73.4462 5.43866 73.7373 4.72809 73.7366 3.98796C73.7366 3.28979 73.3889 2.59233 72.9265 2.011C71.8843 0.963745 70.1481 0.963745 69.222 2.011C68.7024 2.5378 68.4114 3.24808 68.4119 3.98796C68.4119 4.68613 68.7589 5.3843 69.222 5.96564ZM76.0519 7.47739V0.498536H77.2089L80.5658 5.8488V0.498536H81.492V7.36126H80.5658L76.9774 1.66192V7.24443L76.0512 7.47739H76.0519Z" fill="white" stroke="white" stroke-width="0.560673"/>
<path fill-rule="evenodd" clip-rule="evenodd" d="M67.3697 17.4804C64.5913 17.4804 62.5081 19.6904 62.6243 22.4816C62.7397 25.2736 64.8235 27.3674 67.6012 27.2506C70.2635 27.2506 72.3474 25.0406 72.3474 22.3655C72.3474 19.6904 70.2635 17.4804 67.3697 17.4804ZM67.3697 25.3897C65.7496 25.5066 64.3604 24.227 64.2443 22.5985C64.1289 20.9699 65.402 19.5742 67.0227 19.4581C68.6435 19.3413 70.0327 20.6208 70.1481 22.2494V22.4823C70.2635 23.9941 68.9904 25.3897 67.3697 25.3897ZM56.605 17.4804C53.8266 17.4804 51.7428 19.6904 51.8589 22.4816C51.8589 25.2736 54.0581 27.3674 56.8366 27.2506C59.4989 27.2506 61.582 25.0406 61.582 22.3655C61.582 19.6904 59.3828 17.4804 56.605 17.4804ZM56.605 25.3897C54.9843 25.5066 53.5951 24.227 53.4797 22.5985C53.3635 20.9699 54.6366 19.5742 56.2581 19.4581C57.8781 19.3413 59.2674 20.6208 59.3828 22.2494V22.4823C59.3828 23.9941 58.2251 25.3897 56.6043 25.3897H56.605ZM43.7559 18.9922V21.0867H48.8497C48.7335 22.1332 48.3866 23.0637 47.6913 23.7618C46.6497 24.8084 45.2605 25.3897 43.872 25.2736C40.862 25.1575 38.5467 22.4823 38.6628 19.4581C38.7782 16.6661 41.0936 14.224 43.872 14.224C45.2612 14.224 46.6504 14.6892 47.5758 15.7357L49.0805 14.3401C47.6913 12.9438 45.7236 12.2463 43.872 12.2463C39.7043 12.0141 36.232 15.3866 35.9998 19.5742C35.7689 23.7618 39.1258 27.2506 43.2928 27.4835H43.872C45.8397 27.5996 47.8074 26.7853 49.1966 25.3897C50.5858 23.645 51.2797 21.4358 50.9328 19.2252H43.7559V18.9929V18.9922ZM96.3088 20.6208C95.7304 18.7599 93.9935 17.5966 92.0258 17.4804C89.4796 17.4804 87.3951 19.4581 87.3951 22.1325V22.3655C87.2797 25.0406 89.3635 27.2506 92.0258 27.3667H92.2573C93.8781 27.3667 95.4988 26.5531 96.425 25.2736L94.6881 24.1102C94.225 24.9245 93.2989 25.3897 92.2573 25.3897C91.7511 25.3911 91.2548 25.25 90.825 24.9827C90.3951 24.7154 90.0492 24.3326 89.8265 23.878L96.4243 21.086L96.3088 20.6208ZM89.595 22.2494C89.4796 20.7376 90.6366 19.4581 92.1419 19.4581H92.2573C93.0673 19.3413 93.762 19.8072 94.1096 20.5054L89.595 22.2494ZM84.1543 27.0183H86.2381V12.5954H84.1543V27.0183ZM80.6819 18.6438C79.8712 17.9457 78.9458 17.4804 77.9035 17.4804C75.1251 17.5966 73.1581 19.9233 73.2735 22.7146C73.3889 25.2736 75.3573 27.2506 77.9042 27.3667C78.9458 27.3667 79.8712 27.0183 80.5658 26.204H80.6819V26.9022C80.9135 28.2978 79.9873 29.5773 78.5981 29.6934H78.135C76.9774 29.6934 76.0519 28.9953 75.5889 27.9487L73.7366 28.763C74.4312 30.5077 76.1673 31.6711 78.135 31.6711C80.6819 31.6711 82.7658 30.1586 82.7658 26.5531V17.8295H80.6819V18.6438ZM78.135 25.3904C76.515 25.2736 75.3566 23.878 75.3566 22.2494C75.4727 20.7376 76.6304 19.4581 78.135 19.4581C79.6404 19.5742 80.9135 20.7376 80.7974 22.3655V22.4823C80.9135 24.1102 79.7558 25.3897 78.135 25.3897V25.3904ZM106.38 12.5954H101.17V27.0183H103.254V21.5512H106.263C108.695 21.7842 110.778 19.8072 111.01 17.3643C111.241 14.9214 109.273 12.8283 106.842 12.5954H106.379H106.38ZM106.38 19.5742H103.37V14.5731H106.38C107.769 14.5731 108.926 15.7357 108.926 17.0152C108.926 18.4116 107.884 19.5742 106.38 19.5742ZM119.923 17.4804C118.303 17.3643 116.797 18.2947 116.103 19.6904L118.071 20.5047C118.418 19.8065 119.228 19.3413 120.039 19.4574C121.196 19.3413 122.238 20.1556 122.354 21.319V21.4351C121.66 21.086 120.849 20.8537 120.039 20.9699C118.071 20.9699 115.871 22.1332 115.871 24.227C115.987 26.0879 117.492 27.4835 119.46 27.3674H119.576C120.733 27.4835 121.66 26.9022 122.354 25.971H122.47V27.1344H124.553V21.5512C124.322 18.9929 122.353 17.4804 119.923 17.4804ZM119.576 25.3897C118.766 25.5066 118.071 25.0406 117.84 24.227C117.84 23.0637 118.997 22.7146 120.155 22.7146C120.849 22.7146 121.544 22.9475 122.122 23.1798C122.006 24.4593 120.849 25.3897 119.576 25.3897ZM131.846 17.8295L129.299 23.9941L126.753 17.8295H124.437L128.257 26.5531L126.058 31.4381H128.373L134.393 17.8295H131.846ZM112.399 27.0183H114.483V12.5954H112.399V27.0183Z" fill="white"/>
<defs>
<linearGradient id="paint0_linear_1_38" x1="13.4657" y1="28.4482" x2="-9.48159" y2="22.3271" gradientUnits="userSpaceOnUse">
<stop stop-color="#4998D3"/>
<stop offset="0.01" stop-color="#4A99D3"/>
<stop offset="0.26" stop-color="#42BAEB"/>
<stop offset="0.51" stop-color="#41C7F2"/>
<stop offset="0.76" stop-color="#56C9E9"/>
<stop offset="1" stop-color="#5BCAE8"/>
</linearGradient>
<linearGradient id="paint1_linear_1_38" x1="27.4532" y1="15.4867" x2="-0.558122" y2="15.4867" gradientUnits="userSpaceOnUse">
<stop stop-color="#FEE000"/>
<stop offset="0.41" stop-color="#FEBD11"/>
<stop offset="0.78" stop-color="#FAA51A"/>
<stop offset="1" stop-color="#F99B1C"/>
</linearGradient>
<linearGradient id="paint2_linear_1_38" x1="7.34356" y1="22.3787" x2="-11.0639" y2="-8.54916" gradientUnits="userSpaceOnUse">
<stop stop-color="#EF4149"/>
<stop offset="1" stop-color="#C31E63"/>
</linearGradient>
<linearGradient id="paint3_linear_1_38" x1="-12.8154" y1="28.7211" x2="-4.79164" y2="14.8495" gradientUnits="userSpaceOnUse">
<stop stop-color="#32A072"/>
<stop offset="0.07" stop-color="#2CA772"/>
<stop offset="0.48" stop-color="#4BBA71"/>
<stop offset="0.8" stop-color="#5EBD6B"/>
<stop offset="1" stop-color="#66BE69"/>
</linearGradient>
</defs>
</svg>
